<?xml version="1.0" encoding="UTF-8" standalone="no"?>
<!DOCTYPE svg PUBLIC "-//W3C//DTD SVG 1.1//EN" "http://www.w3.org/Graphics/SVG/1.1/DTD/svg11.dtd">
<svg version="1.1" xmlns="http://www.w3.org/2000/svg" xmlns:xlink="http://www.w3.org/1999/xlink" preserveAspectRatio="xMidYMid meet" viewBox="311.33333333333337 277.6312849561573 24.000000000000057 16.420000000000016" width="20" height="12.42"><defs><path d="M330.55 283.05C330.27 282.86 329.99 282.71 329.73 282.61C329.48 282.5 329.25 282.43 329.06 282.39C328.99 282.37 328.93 282.36 328.87 282.35C328.84 282.03 328.78 281.71 328.68 281.4C328.47 280.79 328.13 280.22 327.66 279.77C327.65 279.76 327.59 279.7 327.58 279.69C327.55 279.67 327.52 279.64 327.49 279.61C327.43 279.56 327.36 279.51 327.3 279.46C327.28 279.44 327.12 279.33 327.11 279.32C327.04 279.28 326.97 279.24 326.9 279.2C326.63 279.04 326.35 278.92 326.06 278.83C325.49 278.64 324.9 278.6 324.35 278.66C324.22 278.68 324.08 278.69 323.95 278.73C323.95 278.73 323.91 278.74 323.86 278.75C323.85 278.75 323.85 278.75 323.83 278.76L323.82 278.76C323.81 278.76 323.8 278.76 323.8 278.76C323.77 278.77 323.76 278.78 323.76 278.78C323.7 278.8 323.64 278.81 323.58 278.83C323.33 278.92 323.11 279.02 322.9 279.14C322.49 279.38 322.17 279.67 321.92 279.95C321.74 280.14 321.61 280.34 321.5 280.51C321.5 280.51 321.49 280.51 321.49 280.51C321.44 280.5 321.38 280.48 321.29 280.47C321.21 280.45 321.11 280.44 320.99 280.43C320.93 280.42 320.86 280.42 320.8 280.42C320.73 280.42 320.66 280.42 320.58 280.42C320.44 280.43 320.27 280.45 320.11 280.48C319.94 280.51 319.76 280.55 319.58 280.61C319.4 280.67 319.22 280.74 319.05 280.83C318.96 280.88 318.87 280.92 318.78 280.98C318.74 281.01 318.69 281.03 318.65 281.06C318.64 281.07 318.54 281.13 318.53 281.14C318.37 281.26 318.21 281.39 318.07 281.53C317.93 281.67 317.8 281.81 317.68 281.96C317.57 282.11 317.47 282.26 317.39 282.41C317.3 282.56 317.24 282.71 317.18 282.84C317.12 282.98 317.08 283.11 317.05 283.23C317.02 283.34 317 283.44 316.99 283.53C316.95 283.52 316.92 283.51 316.88 283.5C316.8 283.48 316.7 283.46 316.62 283.45C316.45 283.43 316.27 283.41 316.09 283.41C315.91 283.41 315.73 283.43 315.56 283.45C315.38 283.47 315.21 283.51 315.04 283.56C314.87 283.6 314.71 283.66 314.55 283.73C314.39 283.8 314.25 283.88 314.1 283.97C314.03 284.02 313.97 284.06 313.9 284.11C313.86 284.13 313.83 284.16 313.8 284.18C313.79 284.19 313.72 284.25 313.71 284.25C313.58 284.36 313.47 284.46 313.37 284.58C313.17 284.8 313.01 285.03 312.88 285.26C312.76 285.48 312.67 285.7 312.61 285.9C312.55 286.1 312.51 286.28 312.5 286.42C312.49 286.47 312.48 286.52 312.48 286.56C312.44 286.63 312.41 286.7 312.4 286.77C312.38 286.84 312.36 286.89 312.35 286.94C312.34 287.04 312.33 287.09 312.33 287.09C312.33 287.09 312.35 287.04 312.39 286.95C312.4 286.91 312.44 286.86 312.47 286.8C312.47 286.8 312.47 286.8 312.47 286.8C312.47 286.85 312.47 286.88 312.47 286.88C312.47 286.88 312.48 286.84 312.51 286.77C312.51 286.75 312.52 286.73 312.53 286.71C312.55 286.68 312.57 286.65 312.6 286.61C312.7 286.48 312.86 286.34 313.05 286.22C313.25 286.11 313.49 286.01 313.77 285.96C313.9 285.94 314.05 285.92 314.2 285.92C314.34 285.91 314.5 285.93 314.64 285.96C314.68 285.97 314.72 285.98 314.76 285.99C314.77 285.99 314.79 285.99 314.83 286C314.84 286.01 314.84 286.01 314.84 286.01C314.85 286.01 314.83 286 314.83 286.01C314.83 286.01 314.84 286.01 314.84 286.01C314.84 286.01 314.84 286.01 314.85 286.01C314.86 286.01 314.87 286.02 314.87 286.02C314.95 286.04 315.03 286.07 315.1 286.1C315.18 286.13 315.26 286.17 315.33 286.2C315.41 286.25 315.49 286.28 315.56 286.33C315.86 286.51 316.14 286.74 316.42 286.99C316.7 287.25 316.96 287.54 317.23 287.83C317.49 288.13 317.76 288.44 318.04 288.73C318.32 289.02 318.63 289.29 318.95 289.52C319.12 289.64 319.28 289.74 319.46 289.83C319.55 289.88 319.63 289.92 319.71 289.96C319.8 290 319.89 290.03 319.98 290.06C320.34 290.17 320.69 290.22 321.01 290.2C321.33 290.19 321.62 290.13 321.86 290.03C322.1 289.93 322.29 289.8 322.43 289.68C322.49 289.62 322.55 289.56 322.6 289.5C322.64 289.45 322.68 289.4 322.7 289.36C322.71 289.35 322.71 289.34 322.72 289.33C322.74 289.36 322.76 289.39 322.78 289.42C322.91 289.62 323.07 289.81 323.26 290C323.44 290.18 323.66 290.35 323.89 290.5C324.13 290.65 324.38 290.77 324.65 290.87C324.92 290.96 325.2 291.02 325.48 291.04C325.62 291.05 325.76 291.05 325.91 291.05C325.98 291.04 326.04 291.04 326.1 291.03C326.18 291.02 326.24 291.01 326.31 291C326.84 290.89 327.29 290.65 327.6 290.37C327.76 290.24 327.89 290.09 327.99 289.96C328.09 289.82 328.15 289.69 328.21 289.59C328.23 289.54 328.25 289.5 328.26 289.46C328.45 289.57 328.67 289.67 328.9 289.72C329 289.74 329.1 289.76 329.22 289.77C329.29 289.77 329.33 289.77 329.38 289.77C329.45 289.77 329.49 289.77 329.55 289.76C329.78 289.75 330 289.7 330.22 289.62C330.43 289.54 330.64 289.43 330.84 289.3C330.94 289.24 331.03 289.17 331.12 289.09C331.17 289.05 331.21 289.01 331.25 288.97C331.3 288.93 331.33 288.89 331.38 288.84C331.54 288.67 331.69 288.47 331.81 288.27C331.93 288.06 332.04 287.84 332.12 287.62C332.2 287.39 332.25 287.15 332.29 286.92C332.32 286.68 332.34 286.45 332.33 286.21C332.32 285.74 332.22 285.29 332.05 284.87C331.88 284.46 331.65 284.09 331.39 283.79C331.12 283.49 330.84 283.24 330.55 283.05ZM330.91 288.41C330.9 288.42 330.83 288.51 330.82 288.52C330.78 288.55 330.74 288.59 330.71 288.62C330.64 288.68 330.56 288.75 330.49 288.8C330.33 288.91 330.17 289.01 330 289.08C329.84 289.15 329.66 289.2 329.49 289.23C329.45 289.23 329.4 289.24 329.37 289.24C329.32 289.25 329.27 289.25 329.23 289.25C329.16 289.25 329.07 289.24 328.99 289.23C328.66 289.19 328.36 289.06 328.13 288.87C328.08 288.83 328.02 288.78 327.97 288.72C327.95 288.7 327.93 288.67 327.91 288.65C327.89 288.62 327.86 288.59 327.85 288.56C327.78 288.46 327.72 288.33 327.68 288.21C327.61 287.98 327.6 287.75 327.63 287.57C327.65 287.39 327.71 287.24 327.75 287.15C327.78 287.11 327.8 287.08 327.81 287.05C327.83 287.03 327.83 287.02 327.83 287.02C327.83 287.02 327.82 287.03 327.8 287.05C327.79 287.07 327.75 287.09 327.72 287.13C327.66 287.21 327.56 287.35 327.5 287.54C327.47 287.63 327.44 287.74 327.43 287.87C327.41 287.99 327.42 288.12 327.44 288.27C327.46 288.41 327.5 288.56 327.57 288.72C327.59 288.76 327.61 288.79 327.63 288.82C327.65 288.87 327.68 288.9 327.7 288.94C327.75 289.01 327.81 289.08 327.87 289.15C327.96 289.25 328.07 289.33 328.19 289.41C328.16 289.44 328.13 289.48 328.1 289.51C328.02 289.6 327.92 289.69 327.8 289.78C327.69 289.88 327.54 289.98 327.38 290.06C327.06 290.24 326.66 290.38 326.22 290.42C326.17 290.43 326.11 290.43 326.06 290.43C326 290.44 325.93 290.44 325.88 290.44C325.83 290.43 325.78 290.43 325.72 290.43C325.66 290.42 325.61 290.42 325.55 290.41C325.32 290.38 325.09 290.33 324.87 290.25C324.64 290.17 324.43 290.07 324.22 289.96C324.02 289.84 323.83 289.71 323.65 289.56C323.47 289.42 323.31 289.27 323.17 289.11C323.02 288.96 322.89 288.8 322.78 288.65C322.66 288.5 322.56 288.36 322.48 288.22C322.39 288.09 322.32 287.98 322.26 287.88C322.15 287.68 322.08 287.56 322.08 287.56C322.08 287.56 322.09 287.6 322.1 287.66C322.1 287.72 322.12 287.81 322.14 287.92C322.17 288.04 322.2 288.18 322.25 288.33C322.3 288.49 322.37 288.66 322.45 288.85C322.52 288.99 322.61 289.15 322.71 289.3C322.69 289.31 322.68 289.32 322.67 289.34C322.64 289.37 322.59 289.41 322.54 289.45C322.49 289.49 322.42 289.53 322.35 289.57C322.2 289.66 322.01 289.74 321.79 289.79C321.56 289.84 321.3 289.85 321.02 289.83C320.74 289.8 320.44 289.73 320.15 289.6C320.08 289.57 320.01 289.53 319.94 289.5C319.86 289.45 319.78 289.41 319.72 289.36C319.58 289.28 319.44 289.17 319.3 289.06C319.16 288.95 319.03 288.83 318.9 288.7C318.76 288.57 318.63 288.43 318.5 288.29C318.24 288.01 317.98 287.7 317.71 287.4C317.44 287.1 317.16 286.79 316.85 286.52C316.54 286.25 316.2 286.01 315.84 285.82C315.66 285.73 315.47 285.65 315.29 285.59C315.19 285.56 315.1 285.54 315 285.52C315 285.52 314.99 285.51 314.97 285.51C314.97 285.51 314.96 285.51 314.94 285.5C314.93 285.5 314.93 285.5 314.92 285.5C314.88 285.49 314.86 285.49 314.86 285.49C314.81 285.48 314.77 285.48 314.73 285.47C314.52 285.46 314.34 285.46 314.17 285.48C313.99 285.5 313.82 285.54 313.67 285.59C313.36 285.7 313.1 285.85 312.9 286.02C312.85 286.07 312.8 286.12 312.75 286.17C312.78 286.11 312.81 286.06 312.84 286C312.93 285.83 313.05 285.65 313.2 285.46C313.34 285.28 313.52 285.1 313.71 284.93C313.76 284.88 313.82 284.84 313.87 284.8C313.92 284.76 313.98 284.72 314.03 284.69C314.04 284.68 314.12 284.63 314.12 284.63C314.16 284.61 314.18 284.59 314.21 284.57C314.27 284.54 314.33 284.51 314.39 284.47C314.64 284.34 314.92 284.24 315.2 284.17C315.49 284.1 315.79 284.06 316.08 284.07C316.23 284.07 316.38 284.07 316.53 284.1C316.61 284.11 316.67 284.12 316.75 284.13C316.82 284.15 316.9 284.16 316.97 284.18C317.27 284.25 317.57 284.34 317.86 284.43C318.16 284.51 318.45 284.59 318.74 284.65C318.82 284.66 318.88 284.67 318.96 284.68C319.03 284.69 319.1 284.7 319.17 284.7C319.31 284.71 319.45 284.72 319.58 284.71C319.84 284.7 320.07 284.66 320.27 284.59C320.48 284.53 320.64 284.44 320.77 284.36C320.89 284.28 320.97 284.2 321.03 284.14C321.08 284.09 321.11 284.05 321.11 284.05C321.11 284.05 321.07 284.07 321.01 284.11C320.94 284.15 320.84 284.2 320.71 284.25C320.58 284.29 320.41 284.33 320.22 284.35C320.03 284.37 319.82 284.36 319.59 284.33C319.47 284.32 319.36 284.3 319.23 284.27C319.17 284.25 319.11 284.24 319.05 284.22C318.99 284.21 318.92 284.18 318.86 284.17C318.6 284.09 318.33 283.98 318.05 283.87C317.76 283.77 317.46 283.65 317.13 283.56C317.13 283.56 317.12 283.56 317.12 283.56C317.16 283.5 317.22 283.42 317.28 283.33C317.35 283.24 317.42 283.14 317.51 283.03C317.59 282.92 317.69 282.81 317.79 282.69C317.89 282.58 318 282.46 318.12 282.34C318.24 282.22 318.37 282.11 318.5 282C318.63 281.89 318.77 281.78 318.91 281.68C318.92 281.67 319.01 281.61 319.02 281.6C319.06 281.57 319.09 281.55 319.13 281.53C319.2 281.48 319.28 281.44 319.35 281.39C319.5 281.3 319.65 281.22 319.8 281.15C319.95 281.08 320.1 281.01 320.24 280.95C320.38 280.89 320.52 280.84 320.65 280.79C320.78 280.75 320.9 280.71 321.01 280.68C321.12 280.65 321.22 280.62 321.3 280.6C321.38 280.58 321.44 280.56 321.48 280.55C321.44 280.62 321.4 280.69 321.37 280.75C321.31 280.87 321.27 280.98 321.23 281.07C321.19 281.17 321.16 281.25 321.14 281.32C321.1 281.46 321.08 281.53 321.08 281.53C321.08 281.53 321.12 281.46 321.18 281.34C321.21 281.27 321.25 281.2 321.3 281.11C321.32 281.06 321.35 281.02 321.38 280.97C321.41 280.92 321.44 280.87 321.48 280.82C321.63 280.6 321.83 280.36 322.09 280.13C322.36 279.89 322.69 279.66 323.08 279.48C323.27 279.38 323.48 279.31 323.69 279.25C323.75 279.24 323.81 279.23 323.87 279.21C323.88 279.21 323.89 279.21 323.92 279.2C323.92 279.2 323.95 279.2 323.95 279.2C324.01 279.19 324.03 279.18 324.04 279.18C324.16 279.16 324.28 279.15 324.39 279.14C324.88 279.12 325.39 279.19 325.88 279.37C326.37 279.55 326.83 279.84 327.22 280.22C327.59 280.6 327.89 281.09 328.06 281.61C328.23 282.13 328.29 282.7 328.22 283.23C328.15 283.77 327.96 284.28 327.66 284.69C327.36 285.1 326.95 285.39 326.51 285.51C326.06 285.63 325.61 285.58 325.26 285.39C324.9 285.2 324.64 284.89 324.5 284.59C324.36 284.27 324.34 283.96 324.37 283.71C324.39 283.45 324.46 283.26 324.52 283.13C324.55 283.07 324.57 283.02 324.59 282.99C324.61 282.96 324.62 282.94 324.62 282.94C324.62 282.94 324.61 282.96 324.58 282.98C324.56 283.01 324.53 283.05 324.48 283.11C324.41 283.23 324.3 283.42 324.24 283.68C324.18 283.95 324.15 284.3 324.27 284.67C324.39 285.05 324.64 285.44 325.06 285.71C325.17 285.78 325.28 285.84 325.4 285.89C325.41 285.89 325.42 285.9 325.45 285.91C325.45 285.91 325.46 285.91 325.46 285.91C325.46 285.91 325.47 285.91 325.47 285.91C325.47 285.92 325.46 285.91 325.48 285.92C325.48 285.92 325.49 285.92 325.5 285.92C325.55 285.94 325.58 285.95 325.58 285.95C325.65 285.97 325.72 285.99 325.79 286C326.05 286.05 326.34 286.04 326.62 285.98C326.9 285.92 327.18 285.81 327.44 285.65C327.69 285.49 327.92 285.28 328.11 285.04C328.31 284.8 328.47 284.52 328.59 284.24C328.65 284.09 328.7 283.94 328.75 283.79C328.75 283.78 328.76 283.74 328.78 283.67C328.79 283.61 328.8 283.57 328.8 283.56C328.82 283.49 328.83 283.4 328.84 283.32C328.89 283.03 328.89 282.74 328.88 282.45C328.92 282.47 328.97 282.49 329.02 282.51C329.19 282.59 329.4 282.69 329.62 282.83C329.84 282.97 330.08 283.14 330.32 283.35C330.56 283.56 330.79 283.81 331 284.1C331.21 284.39 331.38 284.71 331.51 285.08C331.53 285.13 331.54 285.18 331.55 285.22C331.56 285.23 331.59 285.34 331.59 285.35C331.61 285.44 331.63 285.54 331.65 285.63C331.66 285.73 331.68 285.83 331.68 285.93C331.69 285.94 331.69 286.06 331.69 286.07C331.7 286.12 331.7 286.17 331.7 286.22C331.7 286.62 331.64 287.02 331.5 287.4C331.44 287.59 331.35 287.77 331.25 287.94C331.15 288.11 331.04 288.27 330.91 288.41Z" id="aSWBDMMuU"></path><mask id="maskb253t2TkGp" x="312.33" y="278.63" width="20" height="12.42" maskUnits="userSpaceOnUse"><rect x="312.33" y="278.63" width="20" height="12.42" fill="white"></rect><use xlink:href="#aSWBDMMuU" opacity="1" fill="black"></use></mask></defs><g><g><use xlink:href="#aSWBDMMuU" opacity="1" fill="#9458d6" fill-opacity="1"></use><g mask="url(#maskb253t2TkGp)"><use xlink:href="#aSWBDMMuU" opacity="1" fill-opacity="0" stroke="#000000" stroke-width="0" stroke-opacity="1"></use></g></g></g></svg>