<?xml version="1.0" encoding="UTF-8" standalone="no"?>
<!DOCTYPE svg PUBLIC "-//W3C//DTD SVG 1.1//EN" "http://www.w3.org/Graphics/SVG/1.1/DTD/svg11.dtd">
<svg version="1.1" xmlns="http://www.w3.org/2000/svg" xmlns:xlink="http://www.w3.org/1999/xlink" preserveAspectRatio="xMidYMid meet" viewBox="311.3333333333335 277.6312849561574 43.99999999999977 28.839999999999918" width="50" height="31.05"><defs><path d="M348.77 287.47C348.2 287.08 347.64 286.8 347.13 286.58C346.63 286.37 346.16 286.24 345.78 286.15C345.65 286.11 345.52 286.09 345.41 286.07C345.35 285.43 345.22 284.79 345.02 284.18C344.61 282.95 343.92 281.81 342.98 280.9C342.97 280.89 342.84 280.77 342.82 280.75C342.77 280.7 342.72 280.65 342.65 280.6C342.52 280.49 342.39 280.38 342.27 280.28C342.23 280.26 341.92 280.04 341.88 280.01C341.74 279.93 341.61 279.85 341.48 279.76C340.94 279.45 340.37 279.21 339.8 279.02C338.65 278.64 337.46 278.56 336.37 278.68C336.1 278.72 335.83 278.76 335.57 278.82C335.56 278.83 335.49 278.84 335.38 278.87C335.37 278.87 335.36 278.87 335.33 278.88L335.3 278.88C335.28 278.89 335.27 278.89 335.27 278.89C335.21 278.91 335.18 278.92 335.18 278.92C335.06 278.96 334.94 278.99 334.83 279.03C334.32 279.21 333.88 279.42 333.47 279.65C332.65 280.12 332 280.7 331.5 281.27C331.15 281.65 330.88 282.04 330.67 282.4C330.66 282.39 330.65 282.39 330.64 282.39C330.55 282.37 330.42 282.33 330.25 282.31C330.09 282.27 329.88 282.24 329.64 282.22C329.52 282.22 329.39 282.21 329.26 282.21C329.12 282.2 328.98 282.21 328.83 282.21C328.54 282.23 328.21 282.26 327.88 282.32C327.54 282.38 327.19 282.47 326.83 282.59C326.47 282.71 326.11 282.85 325.76 283.03C325.58 283.13 325.41 283.21 325.23 283.33C325.14 283.38 325.05 283.44 324.98 283.49C324.95 283.5 324.75 283.64 324.73 283.65C324.4 283.89 324.09 284.15 323.81 284.42C323.52 284.7 323.26 284.99 323.04 285.29C322.81 285.59 322.61 285.89 322.44 286.19C322.27 286.49 322.14 286.78 322.02 287.06C321.92 287.34 321.83 287.59 321.77 287.82C321.71 288.05 321.67 288.26 321.64 288.43C321.57 288.41 321.5 288.39 321.42 288.37C321.26 288.34 321.06 288.3 320.9 288.28C320.56 288.22 320.2 288.2 319.84 288.19C319.48 288.19 319.13 288.22 318.78 288.26C318.43 288.31 318.08 288.39 317.74 288.48C317.41 288.58 317.08 288.69 316.77 288.84C316.46 288.97 316.16 289.13 315.87 289.31C315.74 289.4 315.6 289.48 315.46 289.59C315.4 289.64 315.32 289.69 315.26 289.73C315.24 289.75 315.11 289.86 315.09 289.88C314.84 290.09 314.62 290.3 314.41 290.52C314 290.96 313.68 291.43 313.43 291.88C313.18 292.34 313.01 292.78 312.89 293.17C312.76 293.57 312.7 293.92 312.66 294.21C312.64 294.31 312.63 294.4 312.63 294.48C312.56 294.64 312.49 294.77 312.46 294.91C312.42 295.04 312.38 295.15 312.37 295.25C312.35 295.44 312.33 295.54 312.33 295.54C312.33 295.54 312.37 295.45 312.44 295.27C312.47 295.18 312.54 295.09 312.6 294.97C312.6 294.97 312.61 294.96 312.61 294.96C312.61 295.07 312.61 295.13 312.61 295.13C312.61 295.13 312.63 295.05 312.68 294.9C312.69 294.87 312.7 294.83 312.72 294.79C312.76 294.73 312.81 294.66 312.86 294.6C313.08 294.34 313.38 294.06 313.77 293.82C314.16 293.58 314.65 293.39 315.2 293.29C315.48 293.24 315.76 293.2 316.06 293.21C316.36 293.2 316.67 293.24 316.94 293.28C317.02 293.3 317.11 293.33 317.19 293.34C317.2 293.35 317.24 293.36 317.32 293.37C317.34 293.38 317.35 293.38 317.35 293.38C317.38 293.39 317.33 293.38 317.34 293.38C317.34 293.38 317.34 293.38 317.34 293.38C317.34 293.38 317.36 293.39 317.36 293.39C317.39 293.4 317.41 293.4 317.42 293.41C317.57 293.46 317.72 293.51 317.88 293.57C318.03 293.63 318.18 293.71 318.34 293.78C318.49 293.86 318.64 293.93 318.79 294.03C319.39 294.38 319.96 294.85 320.51 295.36C321.06 295.88 321.59 296.44 322.12 297.04C322.65 297.63 323.18 298.24 323.75 298.82C324.32 299.4 324.92 299.95 325.57 300.41C325.9 300.64 326.22 300.85 326.58 301.04C326.76 301.14 326.92 301.21 327.08 301.28C327.27 301.36 327.44 301.43 327.62 301.49C328.34 301.72 329.04 301.8 329.69 301.78C330.33 301.76 330.91 301.62 331.39 301.42C331.88 301.23 332.25 300.96 332.52 300.73C332.66 300.6 332.77 300.49 332.86 300.37C332.95 300.26 333.02 300.17 333.07 300.09C333.08 300.07 333.09 300.05 333.11 300.02C333.15 300.09 333.19 300.15 333.23 300.21C333.5 300.6 333.81 300.99 334.19 301.36C334.55 301.72 334.99 302.08 335.45 302.37C335.92 302.67 336.44 302.91 336.97 303.1C337.51 303.28 338.07 303.41 338.63 303.45C338.92 303.48 339.19 303.48 339.48 303.46C339.64 303.46 339.75 303.44 339.87 303.43C340.03 303.42 340.15 303.38 340.28 303.36C341.35 303.16 342.24 302.66 342.87 302.11C343.19 301.84 343.44 301.55 343.64 301.28C343.84 301.01 343.97 300.75 344.08 300.54C344.12 300.45 344.16 300.36 344.19 300.29C344.57 300.52 345 300.7 345.46 300.81C345.68 300.85 345.88 300.89 346.11 300.9C346.24 300.91 346.32 300.91 346.43 300.91C346.56 300.91 346.65 300.91 346.77 300.9C347.22 300.86 347.67 300.77 348.1 300.61C348.53 300.45 348.95 300.24 349.34 299.98C349.54 299.84 349.72 299.71 349.91 299.55C350.01 299.46 350.09 299.39 350.17 299.32C350.27 299.22 350.34 299.14 350.42 299.05C350.76 298.71 351.04 298.32 351.29 297.91C351.53 297.49 351.75 297.06 351.9 296.6C352.07 296.15 352.17 295.68 352.25 295.21C352.31 294.74 352.35 294.26 352.33 293.79C352.3 292.85 352.12 291.95 351.76 291.1C351.43 290.3 350.96 289.56 350.44 288.95C349.92 288.35 349.34 287.86 348.77 287.47ZM349.49 298.2C349.47 298.22 349.32 298.38 349.3 298.4C349.22 298.48 349.14 298.56 349.08 298.61C348.95 298.73 348.79 298.86 348.64 298.97C348.34 299.2 348.01 299.38 347.68 299.53C347.34 299.68 347 299.77 346.65 299.82C346.57 299.84 346.47 299.85 346.41 299.85C346.31 299.86 346.2 299.87 346.13 299.86C345.98 299.87 345.8 299.85 345.64 299.83C344.98 299.75 344.38 299.48 343.93 299.11C343.82 299.02 343.71 298.92 343.62 298.82C343.57 298.77 343.53 298.72 343.49 298.67C343.45 298.61 343.39 298.54 343.36 298.48C343.22 298.28 343.1 298.03 343.03 297.8C342.89 297.32 342.87 296.87 342.92 296.51C342.97 296.14 343.08 295.86 343.18 295.68C343.22 295.58 343.27 295.52 343.29 295.48C343.32 295.43 343.33 295.4 343.33 295.4C343.33 295.4 343.31 295.42 343.28 295.46C343.24 295.5 343.18 295.55 343.11 295.64C342.98 295.8 342.79 296.06 342.67 296.44C342.6 296.64 342.55 296.86 342.52 297.1C342.49 297.35 342.5 297.62 342.54 297.91C342.59 298.2 342.66 298.49 342.82 298.81C342.85 298.89 342.89 298.95 342.92 299.02C342.98 299.11 343.02 299.17 343.07 299.25C343.17 299.39 343.28 299.53 343.41 299.67C343.59 299.86 343.81 300.04 344.04 300.2C343.99 300.26 343.93 300.32 343.87 300.4C343.71 300.56 343.51 300.75 343.28 300.94C343.04 301.13 342.75 301.32 342.43 301.5C341.8 301.85 340.99 302.14 340.11 302.22C340.01 302.22 339.89 302.24 339.79 302.24C339.67 302.24 339.53 302.25 339.44 302.24C339.33 302.24 339.22 302.23 339.11 302.22C338.99 302.21 338.88 302.2 338.76 302.19C338.31 302.12 337.84 302.02 337.4 301.86C336.95 301.71 336.52 301.51 336.11 301.28C335.7 301.04 335.32 300.79 334.96 300.49C334.62 300.21 334.29 299.9 334 299.59C333.71 299.28 333.45 298.97 333.22 298.67C333 298.37 332.79 298.08 332.62 297.82C332.45 297.55 332.31 297.32 332.19 297.12C331.97 296.72 331.84 296.49 331.84 296.49C331.84 296.49 331.84 296.56 331.86 296.68C331.88 296.81 331.9 296.99 331.95 297.22C332 297.44 332.06 297.72 332.17 298.03C332.27 298.34 332.4 298.69 332.57 299.06C332.71 299.36 332.88 299.67 333.08 299.98C333.06 300 333.04 300.02 333.01 300.04C332.95 300.12 332.85 300.18 332.75 300.26C332.65 300.35 332.51 300.43 332.37 300.52C332.07 300.68 331.69 300.85 331.24 300.95C330.79 301.05 330.27 301.08 329.7 301.02C329.14 300.97 328.55 300.82 327.97 300.57C327.83 300.5 327.68 300.43 327.55 300.36C327.39 300.27 327.23 300.18 327.1 300.1C326.83 299.92 326.54 299.71 326.27 299.49C325.99 299.27 325.73 299.02 325.46 298.76C325.19 298.51 324.93 298.23 324.67 297.95C324.15 297.38 323.63 296.78 323.1 296.17C322.56 295.57 321.98 294.96 321.36 294.42C320.74 293.87 320.07 293.38 319.35 293.01C318.99 292.83 318.62 292.67 318.24 292.55C318.05 292.49 317.86 292.45 317.68 292.4C317.67 292.4 317.65 292.4 317.6 292.39C317.6 292.39 317.58 292.38 317.55 292.38C317.53 292.37 317.52 292.37 317.51 292.37C317.44 292.36 317.39 292.35 317.38 292.35C317.3 292.34 317.22 292.33 317.12 292.32C316.71 292.28 316.35 292.28 316 292.33C315.65 292.37 315.31 292.46 315.01 292.56C314.39 292.76 313.87 293.07 313.47 293.41C313.36 293.51 313.26 293.61 313.17 293.71C313.22 293.6 313.28 293.49 313.35 293.37C313.53 293.03 313.77 292.67 314.06 292.3C314.35 291.93 314.7 291.57 315.1 291.22C315.2 291.14 315.3 291.06 315.41 290.97C315.51 290.9 315.62 290.81 315.73 290.74C315.75 290.73 315.9 290.63 315.92 290.62C315.98 290.58 316.03 290.55 316.09 290.51C316.2 290.45 316.33 290.38 316.45 290.31C316.95 290.06 317.5 289.85 318.07 289.71C318.64 289.57 319.24 289.49 319.83 289.5C320.13 289.5 320.42 289.52 320.73 289.56C320.89 289.59 321.01 289.61 321.17 289.64C321.31 289.66 321.46 289.69 321.61 289.73C322.21 289.87 322.8 290.05 323.39 290.22C323.98 290.39 324.57 290.55 325.15 290.66C325.31 290.69 325.42 290.71 325.58 290.73C325.73 290.75 325.87 290.77 326.01 290.77C326.29 290.8 326.56 290.8 326.82 290.79C327.34 290.77 327.81 290.68 328.22 290.55C328.62 290.43 328.95 290.26 329.2 290.1C329.45 289.93 329.61 289.77 329.72 289.66C329.83 289.54 329.88 289.48 329.88 289.48C329.88 289.48 329.81 289.52 329.68 289.6C329.55 289.67 329.34 289.77 329.08 289.86C328.82 289.95 328.49 290.03 328.11 290.06C327.74 290.1 327.31 290.09 326.85 290.03C326.62 290 326.38 289.96 326.13 289.91C326.01 289.88 325.89 289.85 325.77 289.82C325.65 289.79 325.5 289.74 325.39 289.7C324.87 289.54 324.33 289.33 323.76 289.12C323.19 288.9 322.58 288.67 321.92 288.5C321.92 288.5 321.91 288.49 321.91 288.49C321.99 288.36 322.11 288.21 322.23 288.04C322.36 287.85 322.51 287.65 322.68 287.43C322.85 287.22 323.04 286.99 323.24 286.76C323.45 286.52 323.67 286.29 323.91 286.05C324.14 285.82 324.4 285.59 324.66 285.36C324.93 285.14 325.2 284.92 325.49 284.72C325.51 284.7 325.69 284.58 325.71 284.57C325.79 284.51 325.86 284.47 325.93 284.42C326.07 284.33 326.22 284.24 326.37 284.15C326.67 283.98 326.97 283.81 327.27 283.66C327.57 283.52 327.86 283.38 328.15 283.27C328.43 283.15 328.71 283.05 328.97 282.96C329.23 282.87 329.47 282.79 329.69 282.73C329.91 282.67 330.1 282.61 330.26 282.57C330.42 282.52 330.54 282.49 330.63 282.47C330.55 282.61 330.47 282.74 330.41 282.87C330.28 283.1 330.2 283.33 330.12 283.52C330.05 283.71 329.99 283.88 329.95 284.01C329.87 284.29 329.84 284.43 329.84 284.43C329.84 284.43 329.9 284.3 330.02 284.04C330.08 283.91 330.17 283.76 330.26 283.59C330.31 283.5 330.37 283.41 330.43 283.31C330.49 283.21 330.56 283.11 330.63 283C330.93 282.58 331.33 282.09 331.86 281.62C332.39 281.15 333.04 280.68 333.82 280.32C334.21 280.14 334.63 279.99 335.05 279.88C335.17 279.85 335.29 279.82 335.41 279.8C335.42 279.79 335.45 279.79 335.5 279.77C335.51 279.77 335.57 279.76 335.57 279.76C335.68 279.75 335.74 279.74 335.75 279.73C335.98 279.69 336.22 279.68 336.46 279.66C337.42 279.61 338.44 279.75 339.43 280.11C340.41 280.47 341.33 281.04 342.1 281.82C342.84 282.57 343.44 283.54 343.78 284.59C344.13 285.63 344.25 286.76 344.11 287.83C343.96 288.9 343.59 289.93 342.99 290.75C342.39 291.56 341.57 292.14 340.68 292.38C339.79 292.63 338.89 292.54 338.18 292.15C337.46 291.77 336.94 291.15 336.67 290.54C336.39 289.91 336.35 289.29 336.4 288.78C336.45 288.28 336.59 287.89 336.7 287.63C336.76 287.51 336.81 287.41 336.85 287.35C336.88 287.28 336.9 287.25 336.9 287.25C336.9 287.25 336.88 287.28 336.83 287.34C336.78 287.39 336.72 287.48 336.64 287.6C336.49 287.83 336.27 288.21 336.14 288.74C336.02 289.26 335.96 289.96 336.2 290.71C336.44 291.46 336.96 292.25 337.79 292.79C338 292.93 338.23 293.05 338.47 293.15C338.48 293.15 338.51 293.16 338.56 293.18C338.56 293.18 338.58 293.19 338.59 293.19C338.59 293.19 338.6 293.19 338.6 293.19C338.61 293.2 338.59 293.19 338.62 293.2C338.63 293.2 338.64 293.21 338.67 293.22C338.77 293.25 338.82 293.27 338.83 293.27C338.96 293.3 339.11 293.35 339.24 293.37C339.77 293.47 340.34 293.45 340.91 293.33C341.47 293.22 342.02 292.99 342.54 292.68C343.05 292.35 343.51 291.93 343.9 291.45C344.28 290.96 344.6 290.42 344.85 289.84C344.97 289.55 345.08 289.25 345.16 288.94C345.17 288.93 345.19 288.85 345.22 288.71C345.25 288.58 345.27 288.51 345.27 288.49C345.3 288.35 345.33 288.17 345.36 288.01C345.44 287.43 345.46 286.85 345.42 286.27C345.51 286.31 345.6 286.35 345.7 286.39C346.05 286.55 346.46 286.76 346.91 287.03C347.35 287.3 347.83 287.65 348.31 288.07C348.78 288.48 349.25 288.98 349.67 289.56C350.08 290.15 350.43 290.79 350.69 291.53C350.73 291.63 350.75 291.72 350.77 291.81C350.78 291.83 350.84 292.04 350.85 292.07C350.89 292.26 350.93 292.45 350.97 292.64C350.99 292.83 351.03 293.02 351.03 293.22C351.04 293.25 351.05 293.49 351.06 293.52C351.06 293.62 351.06 293.71 351.06 293.81C351.06 294.61 350.94 295.42 350.67 296.17C350.54 296.55 350.36 296.9 350.18 297.25C349.97 297.58 349.75 297.91 349.49 298.2Z" id="bLk7v9Gv4"></path><mask id="maskd40BYwBsOm" x="312.33" y="278.63" width="40" height="24.84" maskUnits="userSpaceOnUse"><rect x="312.33" y="278.63" width="40" height="24.84" fill="white"></rect><use xlink:href="#bLk7v9Gv4" opacity="1" fill="black"></use></mask></defs><g><g><use xlink:href="#bLk7v9Gv4" opacity="1" fill="#9458d6" fill-opacity="1"></use><g mask="url(#maskd40BYwBsOm)"><use xlink:href="#bLk7v9Gv4" opacity="1" fill-opacity="0" stroke="#000000" stroke-width="0" stroke-opacity="1"></use></g></g></g></svg>