<svg width="640" height="640" xmlns="http://www.w3.org/2000/svg" xmlns:xlink="http://www.w3.org/1999/xlink" preserveAspectRatio="xMidYMid meet">
 <defs>
  <path id="c96tv9XYr" d="m294.36,210.35c-3.67,-4.27 -7.72,-7.72 -11.71,-10.45c-3.99,-2.73 -7.94,-4.71 -11.51,-6.21c-3.57,-1.51 -6.82,-2.43 -9.49,-3.07c-0.95,-0.27 -1.83,-0.42 -2.65,-0.56c-0.4,-4.49 -1.31,-8.95 -2.69,-13.27c-2.91,-8.66 -7.73,-16.63 -14.32,-23.01c-0.11,-0.1 -1.02,-0.96 -1.13,-1.06c-0.36,-0.35 -0.75,-0.71 -1.23,-1.1c-0.89,-0.73 -1.79,-1.51 -2.69,-2.19c-0.27,-0.19 -2.45,-1.73 -2.72,-1.92c-0.94,-0.58 -1.88,-1.16 -2.82,-1.73c-3.8,-2.2 -7.78,-3.93 -11.81,-5.23c-8.06,-2.67 -16.4,-3.21 -24.06,-2.36c-1.91,0.28 -3.8,0.52 -5.62,0.98c-0.09,0.02 -0.54,0.12 -1.36,0.31l-0.34,0.08l-0.17,0.04l-0.26,0.07c-0.38,0.11 -0.59,0.18 -0.63,0.19c-0.83,0.26 -1.65,0.51 -2.46,0.76c-3.53,1.28 -6.66,2.71 -9.54,4.38c-5.77,3.3 -10.31,7.38 -13.83,11.34c-2.44,2.71 -4.33,5.42 -5.84,7.94c-0.06,-0.02 -0.12,-0.03 -0.19,-0.05c-0.62,-0.14 -1.54,-0.44 -2.73,-0.6c-1.18,-0.22 -2.63,-0.43 -4.31,-0.57c-0.84,-0.06 -1.74,-0.08 -2.69,-0.12c-0.95,-0.02 -1.94,0.02 -2.99,0.04c-2.07,0.12 -4.34,0.33 -6.7,0.77c-2.38,0.41 -4.84,1.06 -7.35,1.87c-2.51,0.83 -5.04,1.87 -7.53,3.12c-1.23,0.66 -2.48,1.27 -3.72,2.07c-0.61,0.38 -1.27,0.77 -1.79,1.13c-0.18,0.12 -1.56,1.04 -1.73,1.16c-2.29,1.68 -4.49,3.47 -6.49,5.41c-1.99,1.95 -3.81,4 -5.41,6.1c-1.59,2.1 -3.01,4.22 -4.17,6.33c-1.2,2.08 -2.13,4.16 -2.93,6.08c-0.76,1.95 -1.35,3.76 -1.79,5.38c-0.41,1.62 -0.69,3.05 -0.88,4.25c-0.51,-0.13 -1.02,-0.27 -1.55,-0.39c-1.14,-0.26 -2.57,-0.52 -3.65,-0.67c-2.39,-0.38 -4.97,-0.57 -7.46,-0.6c-2.51,-0.02 -5.01,0.19 -7.48,0.49c-2.47,0.36 -4.9,0.87 -7.26,1.55c-2.36,0.67 -4.66,1.49 -6.85,2.49c-2.2,0.95 -4.29,2.09 -6.28,3.31c-0.98,0.64 -1.94,1.24 -2.91,1.96c-0.46,0.34 -0.98,0.7 -1.4,1.03c-0.12,0.1 -1.09,0.9 -1.21,1c-1.78,1.48 -3.32,2.95 -4.76,4.52c-2.86,3.13 -5.13,6.41 -6.88,9.59c-1.76,3.18 -2.97,6.28 -3.82,9.06c-0.89,2.77 -1.35,5.26 -1.62,7.31c-0.1,0.68 -0.17,1.3 -0.21,1.9c-0.51,1.08 -0.99,2.04 -1.19,2.96c-0.28,0.96 -0.54,1.74 -0.6,2.42c-0.18,1.33 -0.28,2.04 -0.28,2.04c0,0 0.27,-0.66 0.78,-1.88c0.21,-0.62 0.65,-1.32 1.11,-2.13c0.01,-0.02 0.03,-0.04 0.04,-0.06c0,0.75 0,1.17 0,1.17c0,0 0.18,-0.55 0.52,-1.59c0.07,-0.24 0.15,-0.51 0.25,-0.8c0.31,-0.43 0.66,-0.87 1,-1.35c1.52,-1.83 3.63,-3.78 6.39,-5.46c2.77,-1.66 6.21,-2.98 10.06,-3.7c1.93,-0.34 3.94,-0.62 6.03,-0.58c2.08,-0.08 4.26,0.2 6.19,0.53c0.54,0.1 1.17,0.29 1.76,0.42c0.06,0.01 0.36,0.08 0.9,0.21c0.13,0.04 0.21,0.05 0.22,0.06c0.17,0.03 -0.16,-0.04 -0.11,-0.02c0,0 0.02,0 0.05,0.01l0.1,0.04c0.25,0.08 0.38,0.12 0.41,0.13c1.08,0.35 2.17,0.71 3.24,1.18c1.09,0.4 2.14,0.96 3.23,1.44c1.05,0.58 2.13,1.09 3.16,1.76c4.21,2.49 8.22,5.74 12.12,9.33c3.87,3.66 7.59,7.62 11.29,11.81c3.73,4.17 7.47,8.47 11.46,12.53c3.98,4.08 8.22,7.93 12.78,11.18c2.31,1.62 4.57,3.1 7.08,4.38c1.28,0.71 2.41,1.2 3.54,1.71c1.33,0.59 2.53,1.03 3.8,1.46c5.03,1.61 9.98,2.2 14.5,2.04c4.52,-0.15 8.61,-1.11 11.99,-2.49c3.4,-1.35 6.01,-3.22 7.94,-4.89c0.93,-0.89 1.77,-1.65 2.36,-2.48c0.63,-0.78 1.16,-1.41 1.48,-2c0.1,-0.17 0.18,-0.31 0.27,-0.46c0.28,0.43 0.55,0.86 0.84,1.29c1.89,2.75 4.08,5.48 6.77,8.12c2.52,2.51 5.58,5.01 8.87,7.06c3.29,2.09 6.9,3.82 10.66,5.15c3.78,1.27 7.73,2.14 11.68,2.44c1.98,0.19 3.89,0.2 5.96,0.08c1.08,-0.03 1.86,-0.15 2.75,-0.23c1.07,-0.08 1.93,-0.31 2.88,-0.46c7.47,-1.44 13.74,-4.93 18.17,-8.78c2.24,-1.91 4.02,-3.93 5.4,-5.85c1.43,-1.86 2.36,-3.7 3.1,-5.18c0.3,-0.66 0.54,-1.26 0.75,-1.8c2.67,1.63 5.69,2.9 8.97,3.65c1.49,0.32 2.9,0.57 4.57,0.66c0.88,0.08 1.48,0.07 2.19,0.09c0.94,-0.01 1.6,-0.05 2.42,-0.1c3.14,-0.24 6.3,-0.93 9.33,-2.04c3.06,-1.08 5.98,-2.61 8.73,-4.44c1.38,-0.93 2.68,-1.88 4.01,-3.01c0.71,-0.6 1.23,-1.09 1.79,-1.61c0.69,-0.67 1.19,-1.23 1.79,-1.85c2.35,-2.42 4.34,-5.18 6.13,-8.06c1.65,-2.95 3.2,-5.99 4.26,-9.19c1.16,-3.18 1.87,-6.49 2.44,-9.78c0.45,-3.32 0.7,-6.65 0.56,-9.94c-0.2,-6.6 -1.49,-12.98 -3.96,-18.9c-2.32,-5.67 -5.66,-10.85 -9.31,-15.09zm-1.85,58.27c-1.47,2.34 -2.97,4.66 -4.83,6.65c-0.14,0.14 -1.2,1.31 -1.33,1.46c-0.54,0.53 -1.1,1.08 -1.55,1.46c-0.92,0.87 -2.01,1.75 -3.07,2.53c-2.14,1.58 -4.43,2.88 -6.78,3.9c-2.35,1.05 -4.78,1.69 -7.18,2.09c-0.57,0.09 -1.29,0.17 -1.73,0.22c-0.67,0.03 -1.43,0.09 -1.92,0.07c-1.06,0.04 -2.32,-0.08 -3.45,-0.21c-4.63,-0.61 -8.87,-2.47 -12.05,-5.07c-0.78,-0.66 -1.52,-1.34 -2.19,-2.07c-0.3,-0.36 -0.6,-0.72 -0.9,-1.07c-0.3,-0.43 -0.66,-0.89 -0.92,-1.28c-0.97,-1.42 -1.8,-3.2 -2.29,-4.83c-1.02,-3.33 -1.15,-6.51 -0.78,-9.07c0.37,-2.57 1.13,-4.55 1.8,-5.81c0.3,-0.66 0.63,-1.1 0.81,-1.43c0.19,-0.33 0.29,-0.5 0.29,-0.5c0,0 -0.13,0.14 -0.4,0.41c-0.25,0.27 -0.7,0.64 -1.14,1.23c-0.94,1.13 -2.25,2.96 -3.13,5.67c-0.48,1.34 -0.81,2.89 -1.03,4.62c-0.19,1.73 -0.14,3.63 0.14,5.65c0.31,2.05 0.84,4.08 1.93,6.36c0.25,0.53 0.49,0.96 0.75,1.45c0.37,0.65 0.67,1.06 1.02,1.61c0.71,1.01 1.51,1.99 2.39,2.95c1.3,1.36 2.8,2.61 4.46,3.72c-0.38,0.43 -0.8,0.89 -1.25,1.41c-1.1,1.14 -2.47,2.45 -4.14,3.8c-1.65,1.35 -3.66,2.68 -5.91,3.92c-4.49,2.49 -10.16,4.51 -16.3,5.06c-0.75,0.04 -1.59,0.15 -2.27,0.14c-0.85,0.02 -1.81,0.08 -2.5,0.03c-0.75,-0.03 -1.49,-0.04 -2.31,-0.13c-0.8,-0.05 -1.61,-0.12 -2.41,-0.24c-3.21,-0.44 -6.46,-1.17 -9.59,-2.28c-3.15,-1.07 -6.19,-2.49 -9.06,-4.1c-2.89,-1.66 -5.52,-3.44 -8.08,-5.53c-2.41,-1.96 -4.71,-4.13 -6.74,-6.31c-2.04,-2.18 -3.85,-4.38 -5.45,-6.5c-1.6,-2.12 -3.04,-4.13 -4.22,-5.98c-1.18,-1.85 -2.2,-3.5 -3.01,-4.88c-1.6,-2.81 -2.52,-4.42 -2.52,-4.42c0,0 0.06,0.47 0.16,1.33c0.12,0.87 0.3,2.15 0.65,3.75c0.36,1.59 0.79,3.55 1.53,5.72c0.7,2.2 1.61,4.64 2.84,7.23c0.98,2.07 2.16,4.25 3.55,6.44c-0.15,0.15 -0.3,0.29 -0.48,0.46c-0.44,0.51 -1.11,0.98 -1.84,1.56c-0.7,0.6 -1.65,1.14 -2.66,1.78c-2.08,1.17 -4.74,2.3 -7.91,3.01c-3.18,0.71 -6.87,0.92 -10.81,0.53c-3.93,-0.39 -8.12,-1.41 -12.19,-3.18c-0.98,-0.46 -2.05,-0.97 -2.96,-1.46c-1.08,-0.61 -2.22,-1.24 -3.11,-1.86c-1.92,-1.22 -3.96,-2.69 -5.87,-4.26c-1.93,-1.56 -3.82,-3.31 -5.7,-5.1c-1.86,-1.82 -3.69,-3.76 -5.54,-5.73c-3.65,-4 -7.29,-8.24 -11.05,-12.51c-3.8,-4.23 -7.82,-8.51 -12.18,-12.31c-4.35,-3.83 -9.08,-7.27 -14.16,-9.87c-2.53,-1.29 -5.13,-2.42 -7.78,-3.21c-1.31,-0.44 -2.65,-0.76 -3.96,-1.06c-0.04,0 -0.2,-0.04 -0.5,-0.11l-0.4,-0.09l-0.23,-0.04c-0.55,-0.08 -0.86,-0.12 -0.92,-0.13c-0.62,-0.09 -1.18,-0.18 -1.84,-0.25c-2.88,-0.22 -5.43,-0.24 -7.9,0.13c-2.47,0.28 -4.8,0.87 -6.97,1.57c-4.33,1.44 -7.97,3.61 -10.75,6.01c-0.79,0.67 -1.5,1.37 -2.14,2.07c0.38,-0.77 0.79,-1.56 1.24,-2.39c1.32,-2.37 3,-4.93 5.03,-7.51c2.04,-2.57 4.46,-5.15 7.26,-7.55c0.7,-0.6 1.44,-1.16 2.17,-1.76c0.75,-0.53 1.54,-1.17 2.28,-1.62c0.13,-0.09 1.18,-0.78 1.31,-0.87c0.43,-0.28 0.81,-0.48 1.22,-0.73c0.77,-0.49 1.66,-0.94 2.53,-1.41c3.53,-1.81 7.37,-3.27 11.39,-4.26c4.02,-0.97 8.21,-1.51 12.38,-1.46c2.11,0.02 4.13,0.13 6.27,0.44c1.18,0.16 2,0.32 3.09,0.51c1.04,0.19 2.09,0.41 3.13,0.65c4.17,0.99 8.35,2.25 12.5,3.46c4.14,1.22 8.29,2.33 12.35,3.1c1.13,0.19 1.91,0.33 3.01,0.47c1.04,0.14 2.04,0.26 3.02,0.32c1.96,0.15 3.87,0.18 5.69,0.11c3.66,-0.14 6.99,-0.76 9.82,-1.65c2.84,-0.86 5.14,-2.08 6.9,-3.22c1.75,-1.18 2.93,-2.3 3.7,-3.09c0.73,-0.82 1.11,-1.26 1.11,-1.26c0,0 -0.5,0.29 -1.44,0.84c-0.92,0.54 -2.37,1.19 -4.18,1.87c-1.86,0.63 -4.16,1.14 -6.81,1.41c-2.65,0.25 -5.66,0.17 -8.9,-0.22c-1.61,-0.23 -3.29,-0.49 -5.01,-0.89c-0.86,-0.2 -1.72,-0.4 -2.56,-0.63c-0.8,-0.2 -1.9,-0.55 -2.69,-0.79c-3.62,-1.14 -7.41,-2.59 -11.43,-4.11c-4.02,-1.52 -8.28,-3.13 -12.89,-4.37c-0.04,-0.01 -0.08,-0.02 -0.11,-0.03c0.61,-0.92 1.39,-1.98 2.24,-3.2c0.94,-1.3 2.01,-2.73 3.19,-4.26c1.21,-1.5 2.51,-3.12 3.96,-4.74c1.42,-1.65 3.01,-3.28 4.65,-4.94c1.67,-1.65 3.46,-3.26 5.29,-4.86c1.88,-1.55 3.81,-3.09 5.82,-4.51c0.16,-0.11 1.4,-0.97 1.55,-1.08c0.57,-0.4 1.04,-0.69 1.55,-1.01c0.97,-0.64 2.04,-1.28 3.07,-1.92c2.12,-1.2 4.22,-2.37 6.32,-3.4c2.11,-1 4.18,-1.98 6.2,-2.77c2.01,-0.84 3.96,-1.54 5.78,-2.19c1.82,-0.62 3.53,-1.16 5.06,-1.62c1.53,-0.43 2.89,-0.86 4.02,-1.14c1.09,-0.29 1.94,-0.52 2.55,-0.68c-0.56,0.98 -1.07,1.92 -1.52,2.81c-0.9,1.65 -1.5,3.23 -2.06,4.56c-0.47,1.38 -0.92,2.52 -1.19,3.48c-0.52,1.92 -0.79,2.95 -0.79,2.95c0,0 0.44,-0.96 1.28,-2.75c0.42,-0.9 1.04,-1.95 1.7,-3.2c0.35,-0.62 0.79,-1.25 1.21,-1.94c0.41,-0.7 0.87,-1.43 1.42,-2.16c2.06,-2.99 4.89,-6.38 8.59,-9.72c3.72,-3.31 8.33,-6.57 13.78,-9.13c2.72,-1.28 5.72,-2.31 8.68,-3.11c0.83,-0.19 1.67,-0.38 2.52,-0.57c0.04,-0.01 0.25,-0.06 0.63,-0.15l0.51,-0.08c0.73,-0.12 1.13,-0.18 1.22,-0.2c1.61,-0.3 3.29,-0.4 4.97,-0.54c6.77,-0.31 13.96,0.68 20.86,3.2c6.92,2.5 13.41,6.51 18.81,11.98c5.21,5.3 9.38,12.13 11.78,19.47c2.47,7.32 3.27,15.28 2.29,22.74c-1,7.57 -3.62,14.79 -7.87,20.51c-4.21,5.72 -9.93,9.81 -16.2,11.51c-6.23,1.72 -12.58,1.07 -17.57,-1.64c-5.02,-2.69 -8.67,-7 -10.58,-11.32c-1.95,-4.4 -2.27,-8.81 -1.92,-12.34c0.37,-3.56 1.34,-6.3 2.14,-8.08c0.42,-0.88 0.74,-1.57 1.01,-2.01c0.25,-0.44 0.38,-0.67 0.38,-0.67c0,0 -0.17,0.2 -0.49,0.6c-0.34,0.38 -0.79,0.99 -1.37,1.82c-1.06,1.68 -2.59,4.29 -3.46,8.03c-0.88,3.68 -1.27,8.58 0.41,13.85c1.65,5.27 5.29,10.81 11.18,14.63c1.45,0.97 3.06,1.79 4.76,2.49c0.04,0.01 0.26,0.1 0.64,0.25l0.16,0.06c0.05,0.02 0.08,0.03 0.09,0.03c0.07,0.03 -0.05,0 0.17,0.06c0.02,0.01 0.12,0.04 0.3,0.1c0.71,0.23 1.11,0.36 1.19,0.39c0.88,0.22 1.94,0.52 2.85,0.66c3.75,0.69 7.76,0.57 11.7,-0.26c3.95,-0.8 7.83,-2.37 11.46,-4.6c3.63,-2.26 6.82,-5.22 9.54,-8.63c2.73,-3.39 4.96,-7.23 6.68,-11.3c0.87,-2.04 1.61,-4.14 2.23,-6.29c0.02,-0.11 0.16,-0.66 0.4,-1.65c0.21,-0.91 0.33,-1.41 0.35,-1.51c0.23,-1.02 0.4,-2.27 0.6,-3.39c0.58,-4.05 0.71,-8.14 0.44,-12.22c0.62,0.26 1.27,0.54 1.98,0.84c2.45,1.09 5.33,2.58 8.49,4.47c3.13,1.94 6.49,4.35 9.84,7.29c3.34,2.94 6.64,6.45 9.54,10.53c2.92,4.09 5.39,8.64 7.18,13.82c0.28,0.71 0.44,1.33 0.6,1.94c0.05,0.18 0.46,1.67 0.52,1.85c0.29,1.3 0.59,2.64 0.82,3.99c0.15,1.36 0.44,2.71 0.48,4.1c0.02,0.21 0.14,1.86 0.15,2.07c0.05,0.7 0.02,1.39 0.03,2.09c0.02,5.58 -0.85,11.25 -2.76,16.52c-0.86,2.68 -2.13,5.18 -3.45,7.61z"/>
 </defs>
 <g>
  <title>Layer 1</title>
  <g stroke="null" id="svg_1">
   <g stroke="null" id="svg_2">
    <g stroke="null" id="svg_3">
     <use stroke="null" x="0" y="0" transform="matrix(2.270467803546751,0,0,2.270467803546751,-59.88334570356756,-175.09471884198382) " id="svg_4" fill="#9458d6" xlink:href="#c96tv9XYr"/>
    </g>
   </g>
  </g>
 </g>
</svg>