<?xml version="1.0" encoding="UTF-8" standalone="no"?>
<!DOCTYPE svg PUBLIC "-//W3C//DTD SVG 1.1//EN" "http://www.w3.org/Graphics/SVG/1.1/DTD/svg11.dtd">
<svg version="1.1" xmlns="http://www.w3.org/2000/svg" xmlns:xlink="http://www.w3.org/1999/xlink" preserveAspectRatio="xMidYMid meet" viewBox="0.0005563936231141042 137.5598191241281 641.9988872127537 400.241208197118" width="270" height="167.69"><defs><path d="M582.19 279.51C573.14 273.31 564.17 268.82 556.06 265.41C547.96 261.98 540.58 259.9 534.52 258.44C532.36 257.83 530.36 257.49 528.5 257.17C527.59 246.98 525.52 236.85 522.39 227.04C515.78 207.38 504.84 189.28 489.88 174.8C489.63 174.57 487.56 172.62 487.31 172.39C486.49 171.6 485.61 170.78 484.52 169.89C482.5 168.24 480.46 166.47 478.41 164.92C477.8 164.49 472.85 160.99 472.24 160.56C470.1 159.25 467.97 157.93 465.83 156.63C457.21 151.64 448.17 147.71 439.02 144.76C420.72 138.7 401.78 137.47 384.39 139.4C380.06 140.04 375.76 140.58 371.63 141.63C371.43 141.67 370.41 141.9 368.54 142.33C368.49 142.34 368.24 142.4 367.77 142.51L367.39 142.6C367.03 142.7 366.83 142.75 366.8 142.76C365.93 143.01 365.46 143.17 365.37 143.19C363.48 143.78 361.62 144.35 359.78 144.92C351.77 147.83 344.66 151.07 338.12 154.86C325.02 162.36 314.71 171.62 306.72 180.61C301.18 186.76 296.89 192.92 293.46 198.64C293.32 198.59 293.19 198.57 293.03 198.52C291.62 198.21 289.53 197.53 286.83 197.16C284.15 196.66 280.86 196.19 277.04 195.87C275.14 195.73 273.09 195.69 270.94 195.6C268.78 195.55 266.53 195.64 264.15 195.69C259.45 195.96 254.29 196.44 248.94 197.44C243.53 198.37 237.95 199.84 232.25 201.68C226.55 203.57 220.8 205.93 215.15 208.76C212.36 210.26 209.52 211.65 206.7 213.46C205.32 214.33 203.82 215.21 202.64 216.03C202.23 216.3 199.1 218.39 198.71 218.66C193.51 222.48 188.52 226.54 183.98 230.95C179.46 235.37 175.33 240.03 171.69 244.8C168.08 249.57 164.86 254.38 162.23 259.17C159.5 263.89 157.39 268.61 155.57 272.97C153.85 277.4 152.51 281.51 151.51 285.19C150.58 288.87 149.94 292.11 149.51 294.84C148.35 294.54 147.2 294.23 145.99 293.95C143.4 293.36 140.16 292.77 137.71 292.43C132.28 291.57 126.42 291.14 120.77 291.07C115.07 291.02 109.39 291.5 103.78 292.18C98.18 293 92.66 294.16 87.3 295.7C81.94 297.22 76.72 299.08 71.75 301.35C66.75 303.51 62.01 306.1 57.49 308.87C55.26 310.32 53.09 311.69 50.88 313.32C49.84 314.09 48.66 314.91 47.7 315.66C47.43 315.89 45.23 317.7 44.96 317.93C40.92 321.29 37.42 324.63 34.15 328.19C27.66 335.3 22.5 342.75 18.53 349.97C14.53 357.19 11.79 364.22 9.86 370.54C7.83 376.82 6.79 382.48 6.18 387.13C5.95 388.68 5.79 390.08 5.7 391.45C4.54 393.9 3.45 396.08 3 398.17C2.36 400.35 1.77 402.12 1.64 403.66C1.23 406.68 1 408.29 1 408.29C1 408.29 1.61 406.79 2.77 404.02C3.25 402.62 4.25 401.03 5.29 399.19C5.31 399.14 5.36 399.1 5.38 399.05C5.38 400.76 5.38 401.71 5.38 401.71C5.38 401.71 5.79 400.46 6.56 398.1C6.72 397.55 6.9 396.94 7.13 396.28C7.83 395.31 8.63 394.31 9.4 393.22C12.85 389.06 17.64 384.64 23.91 380.82C30.2 377.05 38.01 374.05 46.75 372.42C51.13 371.65 55.7 371.01 60.44 371.1C65.16 370.92 70.11 371.56 74.5 372.31C75.72 372.53 77.15 372.96 78.49 373.26C78.63 373.28 79.31 373.44 80.54 373.74C80.83 373.83 81.01 373.85 81.03 373.87C81.42 373.94 80.67 373.78 80.78 373.83C80.78 373.83 80.83 373.83 80.9 373.85C80.92 373.86 81.1 373.93 81.13 373.94C81.69 374.12 81.99 374.21 82.06 374.24C84.51 375.03 86.98 375.85 89.41 376.92C91.89 377.82 94.27 379.1 96.75 380.19C99.13 381.5 101.58 382.66 103.92 384.18C113.48 389.83 122.58 397.21 131.44 405.36C140.23 413.67 148.67 422.67 157.07 432.18C165.54 441.65 174.03 451.41 183.09 460.63C192.13 469.89 201.76 478.63 212.11 486.01C217.35 489.69 222.48 493.05 228.18 495.96C231.09 497.57 233.66 498.68 236.22 499.84C239.24 501.18 241.97 502.18 244.85 503.15C256.27 506.81 267.51 508.15 277.77 507.79C288.03 507.44 297.32 505.27 304.99 502.13C312.71 499.07 318.64 494.82 323.02 491.03C325.13 489.01 327.04 487.28 328.38 485.4C329.81 483.63 331.01 482.2 331.74 480.86C331.97 480.47 332.15 480.15 332.35 479.81C332.99 480.79 333.6 481.77 334.26 482.74C338.55 488.99 343.52 495.18 349.63 501.18C355.35 506.88 362.3 512.55 369.77 517.21C377.24 521.95 385.44 525.88 393.97 528.9C402.56 531.78 411.52 533.76 420.49 534.44C424.99 534.87 429.32 534.89 434.02 534.62C436.48 534.55 438.25 534.28 440.27 534.1C442.7 533.92 444.65 533.4 446.81 533.06C463.77 529.79 478 521.86 488.06 513.12C493.15 508.78 497.19 504.2 500.32 499.84C503.57 495.62 505.68 491.44 507.36 488.08C508.04 486.58 508.59 485.22 509.06 483.99C515.13 487.69 521.98 490.58 529.43 492.28C532.81 493 536.01 493.57 539.81 493.78C541.8 493.96 543.17 493.94 544.78 493.98C546.91 493.96 548.41 493.87 550.27 493.75C557.4 493.21 564.58 491.64 571.46 489.12C578.4 486.67 585.03 483.2 591.28 479.04C594.41 476.93 597.36 474.77 600.38 472.21C601.99 470.84 603.17 469.73 604.45 468.55C606.01 467.03 607.15 465.76 608.51 464.35C613.85 458.86 618.36 452.59 622.43 446.05C626.17 439.35 629.69 432.45 632.1 425.19C634.73 417.97 636.35 410.45 637.64 402.98C638.66 395.44 639.23 387.88 638.91 380.41C638.46 365.43 635.53 350.94 629.92 337.5C624.65 324.63 617.07 312.87 608.78 303.24C600.45 293.54 591.25 285.71 582.19 279.51ZM593.62 450.64C593.3 450.96 590.89 453.61 590.6 453.95C589.37 455.16 588.1 456.4 587.08 457.27C584.99 459.24 582.51 461.24 580.11 463.01C575.25 466.6 570.05 469.55 564.71 471.87C559.38 474.25 553.86 475.7 548.41 476.61C547.12 476.82 545.48 477 544.48 477.11C542.96 477.18 541.24 477.32 540.12 477.27C537.72 477.36 534.86 477.09 532.29 476.79C521.78 475.41 512.15 471.19 504.93 465.28C503.16 463.78 501.48 462.24 499.96 460.58C499.28 459.76 498.6 458.95 497.92 458.15C497.23 457.18 496.42 456.13 495.83 455.25C493.62 452.02 491.74 447.98 490.63 444.28C488.31 436.72 488.02 429.5 488.86 423.69C489.7 417.85 491.42 413.36 492.94 410.5C493.62 409 494.37 408 494.78 407.25C495.21 406.5 495.44 406.11 495.44 406.11C495.44 406.11 495.15 406.43 494.53 407.04C493.96 407.66 492.94 408.5 491.94 409.84C489.81 412.4 486.84 416.56 484.84 422.71C483.75 425.75 483 429.27 482.5 433.2C482.07 437.13 482.18 441.44 482.82 446.03C483.52 450.68 484.72 455.29 487.2 460.47C487.77 461.67 488.31 462.65 488.9 463.76C489.74 465.24 490.42 466.17 491.22 467.42C492.83 469.71 494.65 471.93 496.64 474.11C499.6 477.2 503 480.04 506.77 482.56C505.91 483.54 504.95 484.58 503.93 485.76C501.43 488.35 498.32 491.32 494.53 494.39C490.79 497.45 486.22 500.47 481.11 503.29C470.92 508.94 458.05 513.53 444.11 514.78C442.4 514.87 440.5 515.12 438.95 515.1C437.02 515.14 434.84 515.28 433.27 515.16C431.57 515.1 429.89 515.07 428.03 514.87C426.21 514.76 424.37 514.6 422.56 514.32C415.27 513.33 407.89 511.67 400.78 509.15C393.63 506.72 386.73 503.49 380.21 499.84C373.65 496.07 367.68 492.03 361.87 487.28C356.4 482.83 351.17 477.91 346.57 472.96C341.93 468.01 337.82 463.01 334.19 458.2C330.56 453.38 327.29 448.82 324.61 444.62C321.93 440.42 319.62 436.67 317.78 433.54C314.14 427.16 312.05 423.51 312.05 423.51C312.05 423.51 312.19 424.57 312.42 426.53C312.69 428.5 313.1 431.41 313.89 435.04C314.71 438.65 315.69 443.1 317.37 448.03C318.96 453.02 321.02 458.56 323.82 464.44C326.04 469.14 328.72 474.09 331.88 479.06C331.54 479.4 331.19 479.72 330.79 480.11C329.79 481.27 328.27 482.33 326.61 483.65C325.02 485.01 322.86 486.24 320.57 487.69C315.85 490.35 309.81 492.91 302.61 494.53C295.39 496.14 287.01 496.61 278.07 495.73C269.14 494.84 259.63 492.53 250.39 488.51C248.16 487.46 245.73 486.31 243.67 485.19C241.22 483.81 238.63 482.38 236.61 480.97C232.25 478.2 227.62 474.86 223.28 471.3C218.9 467.76 214.61 463.78 210.34 459.72C206.11 455.59 201.96 451.18 197.76 446.71C189.47 437.63 181.21 428 172.67 418.31C164.04 408.7 154.92 398.98 145.02 390.36C135.14 381.66 124.4 373.85 112.87 367.95C107.12 365.02 101.22 362.45 95.2 360.66C92.23 359.66 89.19 358.93 86.21 358.25C86.12 358.25 85.76 358.16 85.08 358C85.02 357.99 84.71 357.92 84.17 357.8C83.85 357.74 83.68 357.71 83.65 357.71C82.4 357.53 81.69 357.43 81.56 357.41C80.15 357.21 78.88 357 77.38 356.84C70.84 356.35 65.05 356.3 59.44 357.14C53.83 357.78 48.54 359.12 43.62 360.7C33.79 363.97 25.52 368.9 19.21 374.35C17.42 375.87 15.8 377.46 14.35 379.05C15.21 377.3 16.14 375.51 17.17 373.62C20.16 368.24 23.98 362.43 28.59 356.57C33.22 350.74 38.71 344.88 45.07 339.43C46.66 338.07 48.34 336.8 50 335.43C51.7 334.23 53.49 332.78 55.17 331.76C55.47 331.55 57.85 329.99 58.15 329.78C59.12 329.14 59.99 328.69 60.92 328.12C62.67 327.01 64.69 325.99 66.66 324.92C74.68 320.81 83.4 317.5 92.52 315.25C101.65 313.05 111.16 311.82 120.63 311.93C125.42 311.98 130.01 312.23 134.87 312.93C137.55 313.3 139.41 313.66 141.88 314.09C144.24 314.52 146.63 315.02 148.99 315.57C158.46 317.82 167.95 320.68 177.37 323.42C186.77 326.19 196.19 328.71 205.41 330.46C207.98 330.89 209.75 331.21 212.24 331.53C214.61 331.85 216.88 332.12 219.1 332.26C223.55 332.6 227.89 332.66 232.02 332.51C240.33 332.19 247.89 330.78 254.32 328.76C260.76 326.81 265.99 324.04 269.98 321.45C273.96 318.77 276.64 316.23 278.38 314.43C280.04 312.57 280.9 311.57 280.9 311.57C280.9 311.57 279.77 312.23 277.63 313.48C275.55 314.7 272.25 316.18 268.14 317.72C263.92 319.15 258.7 320.31 252.68 320.93C246.67 321.49 239.83 321.31 232.47 320.43C228.82 319.9 225 319.31 221.1 318.41C219.15 317.95 217.19 317.5 215.29 316.98C213.47 316.52 210.97 315.73 209.18 315.18C200.96 312.59 192.36 309.3 183.23 305.85C174.1 302.4 164.43 298.74 153.96 295.93C153.87 295.91 153.78 295.88 153.71 295.86C155.1 293.77 156.87 291.36 158.8 288.59C160.93 285.64 163.36 282.4 166.04 278.92C168.79 275.52 171.74 271.84 175.03 268.16C178.26 264.41 181.87 260.71 185.59 256.94C189.38 253.2 193.45 249.54 197.6 245.91C201.87 242.39 206.25 238.89 210.81 235.67C211.18 235.42 213.99 233.47 214.33 233.22C215.63 232.31 216.69 231.65 217.85 230.92C220.06 229.47 222.48 228.02 224.82 226.57C229.64 223.84 234.4 221.18 239.17 218.85C243.96 216.58 248.66 214.35 253.25 212.56C257.81 210.65 262.24 209.06 266.37 207.58C270.51 206.18 274.39 204.95 277.86 203.91C281.34 202.93 284.42 201.95 286.99 201.32C289.46 200.66 291.39 200.14 292.78 199.77C291.51 202 290.35 204.13 289.33 206.15C287.28 209.9 285.92 213.49 284.65 216.51C283.58 219.64 282.56 222.23 281.95 224.41C280.77 228.77 280.15 231.11 280.15 231.11C280.15 231.11 281.15 228.93 283.06 224.86C284.01 222.82 285.42 220.43 286.92 217.6C287.72 216.19 288.71 214.76 289.67 213.19C290.6 211.6 291.64 209.95 292.89 208.29C297.57 201.5 303.99 193.8 312.4 186.22C320.84 178.7 331.31 171.3 343.68 165.49C349.86 162.58 356.67 160.24 363.39 158.43C365.27 158 367.18 157.57 369.11 157.13C369.2 157.11 369.68 157 370.54 156.79C370.66 156.78 371.58 156.63 371.7 156.61C373.36 156.34 374.27 156.2 374.47 156.16C378.13 155.48 381.94 155.25 385.75 154.93C401.13 154.23 417.45 156.48 433.12 162.2C448.83 167.87 463.56 176.98 475.82 189.4C487.65 201.43 497.12 216.94 502.57 233.6C508.18 250.22 509.99 268.3 507.77 285.23C505.5 302.42 499.55 318.81 489.9 331.8C480.34 344.79 467.35 354.07 453.12 357.93C438.97 361.84 424.56 360.36 413.23 354.21C401.83 348.1 393.54 338.32 389.21 328.51C384.78 318.52 384.05 308.51 384.85 300.49C385.69 292.41 387.89 286.19 389.7 282.15C390.66 280.15 391.38 278.58 392 277.58C392.57 276.58 392.86 276.06 392.86 276.06C392.86 276.06 392.47 276.52 391.75 277.42C390.98 278.29 389.95 279.67 388.64 281.56C386.23 285.37 382.76 291.3 380.78 299.79C378.78 308.14 377.9 319.27 381.71 331.23C385.46 343.2 393.72 355.78 407.1 364.45C410.39 366.65 414.04 368.51 417.9 370.1C417.99 370.13 418.49 370.33 419.36 370.67C419.39 370.69 419.68 370.79 419.72 370.81C419.83 370.85 419.9 370.88 419.92 370.88C420.08 370.94 419.81 370.88 420.31 371.01C420.36 371.04 420.58 371.1 420.99 371.24C422.6 371.76 423.51 372.06 423.69 372.12C425.69 372.62 428.1 373.31 430.16 373.62C438.68 375.19 447.78 374.92 456.73 373.03C465.7 371.22 474.51 367.65 482.75 362.59C490.99 357.46 498.23 350.74 504.41 342.99C510.61 335.3 515.67 326.58 519.58 317.34C521.55 312.71 523.23 307.94 524.64 303.06C524.68 302.81 525 301.56 525.55 299.31C526.02 297.24 526.3 296.11 526.34 295.88C526.86 293.57 527.25 290.73 527.7 288.19C529.02 278.99 529.32 269.7 528.7 260.44C530.11 261.03 531.59 261.67 533.2 262.35C538.76 264.82 545.3 268.21 552.47 272.5C559.58 276.9 567.21 282.37 574.82 289.05C582.4 295.72 589.89 303.69 596.48 312.96C603.11 322.24 608.71 332.57 612.78 344.33C613.41 345.95 613.78 347.35 614.14 348.74C614.25 349.15 615.18 352.53 615.32 352.94C615.98 355.89 616.66 358.93 617.18 362C617.52 365.09 618.18 368.15 618.27 371.31C618.32 371.78 618.59 375.53 618.61 376.01C618.73 377.6 618.66 379.16 618.68 380.75C618.73 393.42 616.75 406.3 612.41 418.26C610.46 424.35 607.58 430.02 604.58 435.54C601.24 440.85 597.84 446.12 593.62 450.64Z" id="df6KmnkxG"></path></defs><g><g><use xlink:href="#df6KmnkxG" opacity="1" fill="#9458d6" fill-opacity="1"></use><g><use xlink:href="#df6KmnkxG" opacity="1" fill-opacity="0" stroke="#000000" stroke-width="0.5" stroke-opacity="1"></use></g></g></g></svg>