<?xml version="1.0" encoding="UTF-8" standalone="no"?>
<!DOCTYPE svg PUBLIC "-//W3C//DTD SVG 1.1//EN" "http://www.w3.org/Graphics/SVG/1.1/DTD/svg11.dtd">
<svg version="1.1" xmlns="http://www.w3.org/2000/svg" xmlns:xlink="http://www.w3.org/1999/xlink" preserveAspectRatio="xMidYMid meet" viewBox="0 0 640 640" width="481" height="481"><defs><path d="M294.36 210.35C290.69 206.08 286.64 202.63 282.65 199.9C278.66 197.17 274.71 195.19 271.14 193.69C267.57 192.18 264.32 191.26 261.65 190.62C260.7 190.35 259.82 190.2 259 190.06C258.6 185.57 257.69 181.11 256.31 176.79C253.4 168.13 248.58 160.16 241.99 153.78C241.88 153.68 240.97 152.82 240.86 152.72C240.5 152.37 240.11 152.01 239.63 151.62C238.74 150.89 237.84 150.11 236.94 149.43C236.67 149.24 234.49 147.7 234.22 147.51C233.28 146.93 232.34 146.35 231.4 145.78C227.6 143.58 223.62 141.85 219.59 140.55C211.53 137.88 203.19 137.34 195.53 138.19C193.62 138.47 191.73 138.71 189.91 139.17C189.82 139.19 189.37 139.29 188.55 139.48L188.21 139.56L188.04 139.6L187.78 139.67C187.4 139.78 187.19 139.85 187.15 139.86C186.32 140.12 185.5 140.37 184.69 140.62C181.16 141.9 178.03 143.33 175.15 145C169.38 148.3 164.84 152.38 161.32 156.34C158.88 159.05 156.99 161.76 155.48 164.28C155.42 164.26 155.36 164.25 155.29 164.23C154.67 164.09 153.75 163.79 152.56 163.63C151.38 163.41 149.93 163.2 148.25 163.06C147.41 163 146.51 162.98 145.56 162.94C144.61 162.92 143.62 162.96 142.57 162.98C140.5 163.1 138.23 163.31 135.87 163.75C133.49 164.16 131.03 164.81 128.52 165.62C126.01 166.45 123.48 167.49 120.99 168.74C119.76 169.4 118.51 170.01 117.27 170.81C116.66 171.19 116 171.58 115.48 171.94C115.3 172.06 113.92 172.98 113.75 173.1C111.46 174.78 109.26 176.57 107.26 178.51C105.27 180.46 103.45 182.51 101.85 184.61C100.26 186.71 98.84 188.83 97.68 190.94C96.48 193.02 95.55 195.1 94.75 197.02C93.99 198.97 93.4 200.78 92.96 202.4C92.55 204.02 92.27 205.45 92.08 206.65C91.57 206.52 91.06 206.38 90.53 206.26C89.39 206 87.96 205.74 86.88 205.59C84.49 205.21 81.91 205.02 79.42 204.99C76.91 204.97 74.41 205.18 71.94 205.48C69.47 205.84 67.04 206.35 64.68 207.03C62.32 207.7 60.02 208.52 57.83 209.52C55.63 210.47 53.54 211.61 51.55 212.83C50.57 213.47 49.61 214.07 48.64 214.79C48.18 215.13 47.66 215.49 47.24 215.82C47.12 215.92 46.15 216.72 46.03 216.82C44.25 218.3 42.71 219.77 41.27 221.34C38.41 224.47 36.14 227.75 34.39 230.93C32.63 234.11 31.42 237.21 30.57 239.99C29.68 242.76 29.22 245.25 28.95 247.3C28.85 247.98 28.78 248.6 28.74 249.2C28.23 250.28 27.75 251.24 27.55 252.16C27.27 253.12 27.01 253.9 26.95 254.58C26.77 255.91 26.67 256.62 26.67 256.62C26.67 256.62 26.94 255.96 27.45 254.74C27.66 254.12 28.1 253.42 28.56 252.61C28.57 252.59 28.59 252.57 28.6 252.55C28.6 253.3 28.6 253.72 28.6 253.72C28.6 253.72 28.78 253.17 29.12 252.13C29.19 251.89 29.27 251.62 29.37 251.33C29.68 250.9 30.03 250.46 30.37 249.98C31.89 248.15 34 246.2 36.76 244.52C39.53 242.86 42.97 241.54 46.82 240.82C48.75 240.48 50.76 240.2 52.85 240.24C54.93 240.16 57.11 240.44 59.04 240.77C59.58 240.87 60.21 241.06 60.8 241.19C60.86 241.2 61.16 241.27 61.7 241.4C61.83 241.44 61.91 241.45 61.92 241.46C62.09 241.49 61.76 241.42 61.81 241.44C61.81 241.44 61.83 241.44 61.86 241.45L61.96 241.49C62.21 241.57 62.34 241.61 62.37 241.62C63.45 241.97 64.54 242.33 65.61 242.8C66.7 243.2 67.75 243.76 68.84 244.24C69.89 244.82 70.97 245.33 72 246C76.21 248.49 80.22 251.74 84.12 255.33C87.99 258.99 91.71 262.95 95.41 267.14C99.14 271.31 102.88 275.61 106.87 279.67C110.85 283.75 115.09 287.6 119.65 290.85C121.96 292.47 124.22 293.95 126.73 295.23C128.01 295.94 129.14 296.43 130.27 296.94C131.6 297.53 132.8 297.97 134.07 298.4C139.1 300.01 144.05 300.6 148.57 300.44C153.09 300.29 157.18 299.33 160.56 297.95C163.96 296.6 166.57 294.73 168.5 293.06C169.43 292.17 170.27 291.41 170.86 290.58C171.49 289.8 172.02 289.17 172.34 288.58C172.44 288.41 172.52 288.27 172.61 288.12C172.89 288.55 173.16 288.98 173.45 289.41C175.34 292.16 177.53 294.89 180.22 297.53C182.74 300.04 185.8 302.54 189.09 304.59C192.38 306.68 195.99 308.41 199.75 309.74C203.53 311.01 207.48 311.88 211.43 312.18C213.41 312.37 215.32 312.38 217.39 312.26C218.47 312.23 219.25 312.11 220.14 312.03C221.21 311.95 222.07 311.72 223.02 311.57C230.49 310.13 236.76 306.64 241.19 302.79C243.43 300.88 245.21 298.86 246.59 296.94C248.02 295.08 248.95 293.24 249.69 291.76C249.99 291.1 250.23 290.5 250.44 289.96C253.11 291.59 256.13 292.86 259.41 293.61C260.9 293.93 262.31 294.18 263.98 294.27C264.86 294.35 265.46 294.34 266.17 294.36C267.11 294.35 267.77 294.31 268.59 294.26C271.73 294.02 274.89 293.33 277.92 292.22C280.98 291.14 283.9 289.61 286.65 287.78C288.03 286.85 289.33 285.9 290.66 284.77C291.37 284.17 291.89 283.68 292.45 283.16C293.14 282.49 293.64 281.93 294.24 281.31C296.59 278.89 298.58 276.13 300.37 273.25C302.02 270.3 303.57 267.26 304.63 264.06C305.79 260.88 306.5 257.57 307.07 254.28C307.52 250.96 307.77 247.63 307.63 244.34C307.43 237.74 306.14 231.36 303.67 225.44C301.35 219.77 298.01 214.59 294.36 210.35ZM292.51 268.62C291.04 270.96 289.54 273.28 287.68 275.27C287.54 275.41 286.48 276.58 286.35 276.73C285.81 277.26 285.25 277.81 284.8 278.19C283.88 279.06 282.79 279.94 281.73 280.72C279.59 282.3 277.3 283.6 274.95 284.62C272.6 285.67 270.17 286.31 267.77 286.71C267.2 286.8 266.48 286.88 266.04 286.93C265.37 286.96 264.61 287.02 264.12 287C263.06 287.04 261.8 286.92 260.67 286.79C256.04 286.18 251.8 284.32 248.62 281.72C247.84 281.06 247.1 280.38 246.43 279.65C246.13 279.29 245.83 278.93 245.53 278.58C245.23 278.15 244.87 277.69 244.61 277.3C243.64 275.88 242.81 274.1 242.32 272.47C241.3 269.14 241.17 265.96 241.54 263.4C241.91 260.83 242.67 258.85 243.34 257.59C243.64 256.93 243.97 256.49 244.15 256.16C244.34 255.83 244.44 255.66 244.44 255.66C244.44 255.66 244.31 255.8 244.04 256.07C243.79 256.34 243.34 256.71 242.9 257.3C241.96 258.43 240.65 260.26 239.77 262.97C239.29 264.31 238.96 265.86 238.74 267.59C238.55 269.32 238.6 271.22 238.88 273.24C239.19 275.29 239.72 277.32 240.81 279.6C241.06 280.13 241.3 280.56 241.56 281.05C241.93 281.7 242.23 282.11 242.58 282.66C243.29 283.67 244.09 284.65 244.97 285.61C246.27 286.97 247.77 288.22 249.43 289.33C249.05 289.76 248.63 290.22 248.18 290.74C247.08 291.88 245.71 293.19 244.04 294.54C242.39 295.89 240.38 297.22 238.13 298.46C233.64 300.95 227.97 302.97 221.83 303.52C221.08 303.56 220.24 303.67 219.56 303.66C218.71 303.68 217.75 303.74 217.06 303.69C216.31 303.66 215.57 303.65 214.75 303.56C213.95 303.51 213.14 303.44 212.34 303.32C209.13 302.88 205.88 302.15 202.75 301.04C199.6 299.97 196.56 298.55 193.69 296.94C190.8 295.28 188.17 293.5 185.61 291.41C183.2 289.45 180.9 287.28 178.87 285.1C176.83 282.92 175.02 280.72 173.42 278.6C171.82 276.48 170.38 274.47 169.2 272.62C168.02 270.77 167 269.12 166.19 267.74C164.59 264.93 163.67 263.32 163.67 263.32C163.67 263.32 163.73 263.79 163.83 264.65C163.95 265.52 164.13 266.8 164.48 268.4C164.84 269.99 165.27 271.95 166.01 274.12C166.71 276.32 167.62 278.76 168.85 281.35C169.83 283.42 171.01 285.6 172.4 287.79C172.25 287.94 172.1 288.08 171.92 288.25C171.48 288.76 170.81 289.23 170.08 289.81C169.38 290.41 168.43 290.95 167.42 291.59C165.34 292.76 162.68 293.89 159.51 294.6C156.33 295.31 152.64 295.52 148.7 295.13C144.77 294.74 140.58 293.72 136.51 291.95C135.53 291.49 134.46 290.98 133.55 290.49C132.47 289.88 131.33 289.25 130.44 288.63C128.52 287.41 126.48 285.94 124.57 284.37C122.64 282.81 120.75 281.06 118.87 279.27C117.01 277.45 115.18 275.51 113.33 273.54C109.68 269.54 106.04 265.3 102.28 261.03C98.48 256.8 94.46 252.52 90.1 248.72C85.75 244.89 81.02 241.45 75.94 238.85C73.41 237.56 70.81 236.43 68.16 235.64C66.85 235.2 65.51 234.88 64.2 234.58C64.16 234.58 64 234.54 63.7 234.47L63.3 234.38L63.07 234.34C62.52 234.26 62.21 234.22 62.15 234.21C61.53 234.12 60.97 234.03 60.31 233.96C57.43 233.74 54.88 233.72 52.41 234.09C49.94 234.37 47.61 234.96 45.44 235.66C41.11 237.1 37.47 239.27 34.69 241.67C33.9 242.34 33.19 243.04 32.55 243.74C32.93 242.97 33.34 242.18 33.79 241.35C35.11 238.98 36.79 236.42 38.82 233.84C40.86 231.27 43.28 228.69 46.08 226.29C46.78 225.69 47.52 225.13 48.25 224.53C49 224 49.79 223.36 50.53 222.91C50.66 222.82 51.71 222.13 51.84 222.04C52.27 221.76 52.65 221.56 53.06 221.31C53.83 220.82 54.72 220.37 55.59 219.9C59.12 218.09 62.96 216.63 66.98 215.64C71 214.67 75.19 214.13 79.36 214.18C81.47 214.2 83.49 214.31 85.63 214.62C86.81 214.78 87.63 214.94 88.72 215.13C89.76 215.32 90.81 215.54 91.85 215.78C96.02 216.77 100.2 218.03 104.35 219.24C108.49 220.46 112.64 221.57 116.7 222.34C117.83 222.53 118.61 222.67 119.71 222.81C120.75 222.95 121.75 223.07 122.73 223.13C124.69 223.28 126.6 223.31 128.42 223.24C132.08 223.1 135.41 222.48 138.24 221.59C141.08 220.73 143.38 219.51 145.14 218.37C146.89 217.19 148.07 216.07 148.84 215.28C149.57 214.46 149.95 214.02 149.95 214.02C149.95 214.02 149.45 214.31 148.51 214.86C147.59 215.4 146.14 216.05 144.33 216.73C142.47 217.36 140.17 217.87 137.52 218.14C134.87 218.39 131.86 218.31 128.62 217.92C127.01 217.69 125.33 217.43 123.61 217.03C122.75 216.83 121.89 216.63 121.05 216.4C120.25 216.2 119.15 215.85 118.36 215.61C114.74 214.47 110.95 213.02 106.93 211.5C102.91 209.98 98.65 208.37 94.04 207.13C94 207.12 93.96 207.11 93.93 207.1C94.54 206.18 95.32 205.12 96.17 203.9C97.11 202.6 98.18 201.17 99.36 199.64C100.57 198.14 101.87 196.52 103.32 194.9C104.74 193.25 106.33 191.62 107.97 189.96C109.64 188.31 111.43 186.7 113.26 185.1C115.14 183.55 117.07 182.01 119.08 180.59C119.24 180.48 120.48 179.62 120.63 179.51C121.2 179.11 121.67 178.82 122.18 178.5C123.15 177.86 124.22 177.22 125.25 176.58C127.37 175.38 129.47 174.21 131.57 173.18C133.68 172.18 135.75 171.2 137.77 170.41C139.78 169.57 141.73 168.87 143.55 168.22C145.37 167.6 147.08 167.06 148.61 166.6C150.14 166.17 151.5 165.74 152.63 165.46C153.72 165.17 154.57 164.94 155.18 164.78C154.62 165.76 154.11 166.7 153.66 167.59C152.76 169.24 152.16 170.82 151.6 172.15C151.13 173.53 150.68 174.67 150.41 175.63C149.89 177.55 149.62 178.58 149.62 178.58C149.62 178.58 150.06 177.62 150.9 175.83C151.32 174.93 151.94 173.88 152.6 172.63C152.95 172.01 153.39 171.38 153.81 170.69C154.22 169.99 154.68 169.26 155.23 168.53C157.29 165.54 160.12 162.15 163.82 158.81C167.54 155.5 172.15 152.24 177.6 149.68C180.32 148.4 183.32 147.37 186.28 146.57C187.11 146.38 187.95 146.19 188.8 146C188.84 145.99 189.05 145.94 189.43 145.85L189.94 145.77C190.67 145.65 191.07 145.59 191.16 145.57C192.77 145.27 194.45 145.17 196.13 145.03C202.9 144.72 210.09 145.71 216.99 148.23C223.91 150.73 230.4 154.74 235.8 160.21C241.01 165.51 245.18 172.34 247.58 179.68C250.05 187 250.85 194.96 249.87 202.42C248.87 209.99 246.25 217.21 242 222.93C237.79 228.65 232.07 232.74 225.8 234.44C219.57 236.16 213.22 235.51 208.23 232.8C203.21 230.11 199.56 225.8 197.65 221.48C195.7 217.08 195.38 212.67 195.73 209.14C196.1 205.58 197.07 202.84 197.87 201.06C198.29 200.18 198.61 199.49 198.88 199.05C199.13 198.61 199.26 198.38 199.26 198.38C199.26 198.38 199.09 198.58 198.77 198.98C198.43 199.36 197.98 199.97 197.4 200.8C196.34 202.48 194.81 205.09 193.94 208.83C193.06 212.51 192.67 217.41 194.35 222.68C196 227.95 199.64 233.49 205.53 237.31C206.98 238.28 208.59 239.1 210.29 239.8C210.33 239.81 210.55 239.9 210.93 240.05L211.09 240.11C211.14 240.13 211.17 240.14 211.18 240.14C211.25 240.17 211.13 240.14 211.35 240.2C211.37 240.21 211.47 240.24 211.65 240.3C212.36 240.53 212.76 240.66 212.84 240.69C213.72 240.91 214.78 241.21 215.69 241.35C219.44 242.04 223.45 241.92 227.39 241.09C231.34 240.29 235.22 238.72 238.85 236.49C242.48 234.23 245.67 231.27 248.39 227.86C251.12 224.47 253.35 220.63 255.07 216.56C255.94 214.52 256.68 212.42 257.3 210.27C257.32 210.16 257.46 209.61 257.7 208.62C257.91 207.71 258.03 207.21 258.05 207.11C258.28 206.09 258.45 204.84 258.65 203.72C259.23 199.67 259.36 195.58 259.09 191.5C259.71 191.76 260.36 192.04 261.07 192.34C263.52 193.43 266.4 194.92 269.56 196.81C272.69 198.75 276.05 201.16 279.4 204.1C282.74 207.04 286.04 210.55 288.94 214.63C291.86 218.72 294.33 223.27 296.12 228.45C296.4 229.16 296.56 229.78 296.72 230.39C296.77 230.57 297.18 232.06 297.24 232.24C297.53 233.54 297.83 234.88 298.06 236.23C298.21 237.59 298.5 238.94 298.54 240.33C298.56 240.54 298.68 242.19 298.69 242.4C298.74 243.1 298.71 243.79 298.72 244.49C298.74 250.07 297.87 255.74 295.96 261.01C295.1 263.69 293.83 266.19 292.51 268.62Z" id="c96tv9XYr"></path></defs><g><g><g><use xlink:href="#c96tv9XYr" opacity="1" fill="#9458d6" fill-opacity="1"></use><g><use xlink:href="#c96tv9XYr" opacity="1" fill-opacity="0" stroke="#000000" stroke-width="1" stroke-opacity="0"></use></g></g></g></g></svg>